<svg width="36" height="36" viewBox="0 0 36 36" fill="none" xmlns="http://www.w3.org/2000/svg">
<g clip-path="url(#clip0_17_369)">
<path d="M35.2829 9.27824C35.0794 8.51236 34.6783 7.81337 34.1197 7.25122C33.5612 6.68907 32.8647 6.28349 32.1002 6.07506C29.2856 5.31824 18.0356 5.31824 18.0356 5.31824C18.0356 5.31824 6.78565 5.31824 3.9711 6.07506C3.20654 6.28349 2.51013 6.68907 1.95158 7.25122C1.39302 7.81337 0.991903 8.51236 0.788372 9.27824C0.0356446 12.1051 0.0356445 18.0001 0.0356445 18.0001C0.0356445 18.0001 0.0356446 23.8951 0.788372 26.7219C0.991903 27.4878 1.39302 28.1867 1.95158 28.7489C2.51013 29.311 3.20654 29.7166 3.9711 29.9251C6.78565 30.6819 18.0356 30.6819 18.0356 30.6819C18.0356 30.6819 29.2856 30.6819 32.1002 29.9251C32.8647 29.7166 33.5612 29.311 34.1197 28.7489C34.6783 28.1867 35.0794 27.4878 35.2829 26.7219C36.0356 23.8951 36.0356 18.0001 36.0356 18.0001C36.0356 18.0001 36.0356 12.1051 35.2829 9.27824Z" fill="#FF0302"/>
<path d="M14.354 23.353V12.6471L23.7631 18L14.354 23.353Z" fill="#FEFEFE"/>
</g>
<defs>
<clipPath id="clip0_17_369">
<rect width="36" height="36" fill="white"/>
</clipPath>
</defs>
</svg>
